<svg width="53" height="47" viewBox="0 0 53 47" fill="none" xmlns="http://www.w3.org/2000/svg">
<g clip-path="url(#clip0_65_52)">
<path d="M30.5448 18.4879C30.5448 16.4592 29.116 15.3393 26.6065 15.3393H21.9904V21.8752H25.883C28.8871 21.866 30.5448 20.6543 30.5448 18.4879ZM47.3514 17.3129C46.4813 14.4764 46.353 10.9973 46.4538 8.30762C46.5545 5.50781 44.3747 2.9375 41.4439 2.9375H11.3295C8.38952 2.9375 6.21887 5.51699 6.31961 8.30762C6.4112 10.9973 6.29214 14.4764 5.42204 17.3129C4.54279 20.1586 3.06821 21.9578 0.641113 22.1873V24.8035C3.05906 25.033 4.54279 26.8322 5.42204 29.6779C6.29214 32.5144 6.42036 35.9936 6.31961 38.6832C6.21887 41.483 8.39868 44.0533 11.3295 44.0533H41.4347C44.3747 44.0533 46.5454 41.4738 46.4446 38.6832C46.353 35.9936 46.4721 32.5144 47.3422 29.6779C48.2215 26.8322 49.696 25.033 52.114 24.8035V22.1873C49.7052 21.9578 48.2215 20.1586 47.3514 17.3129ZM27.4949 34.433H18.5284V12.5578H27.4491C31.4149 12.5578 34.016 14.7059 34.016 18.0105C34.016 20.333 32.2667 22.4076 30.0319 22.7656V22.885C33.0727 23.2154 35.1151 25.3268 35.1151 28.2367C35.1151 32.1014 32.2484 34.433 27.4949 34.433ZM26.579 24.4547H21.9904V31.6516H26.7805C29.9129 31.6516 31.5706 30.3939 31.5706 28.0256C31.5706 25.6664 29.8671 24.4547 26.579 24.4547Z" fill="#CCCCCC"/>
</g>
<defs>
<clipPath id="clip0_65_52">
<rect width="52.7551" height="47" rx="5" fill="white"/>
</clipPath>
</defs>
</svg>
