<svg width="59" height="47" viewBox="0 0 59 47" fill="none" xmlns="http://www.w3.org/2000/svg">
<g clip-path="url(#clip0_65_50)">
<path d="M36.2113 0.109998C34.6441 -0.339807 33.0124 0.568982 32.5607 2.12953L20.7607 43.2545C20.309 44.8151 21.2216 46.4399 22.7888 46.8897C24.356 47.3395 25.9877 46.4307 26.4394 44.8702L38.2394 3.74515C38.6912 2.18461 37.7785 0.559803 36.2113 0.109998ZM43.6416 11.1348C42.4893 12.2823 42.4893 14.1457 43.6416 15.2932L51.874 23.4998L43.6324 31.7065C42.4801 32.8539 42.4801 34.7174 43.6324 35.8649C44.7848 37.0123 46.6562 37.0123 47.8085 35.8649L58.1335 25.5836C59.2858 24.4362 59.2858 22.5727 58.1335 21.4252L47.8085 11.144C46.6562 9.99652 44.7848 9.99652 43.6324 11.144L43.6416 11.1348ZM15.3677 11.1348C14.2154 9.98734 12.344 9.98734 11.1916 11.1348L0.866638 21.4161C-0.285706 22.5635 -0.285706 24.427 0.866638 25.5745L11.1916 35.8557C12.344 37.0032 14.2154 37.0032 15.3677 35.8557C16.5201 34.7082 16.5201 32.8448 15.3677 31.6973L7.12617 23.4998L15.3677 15.2932C16.5201 14.1457 16.5201 12.2823 15.3677 11.1348Z" fill="#CCCCCC"/>
</g>
<defs>
<clipPath id="clip0_65_50">
<rect width="59" height="47" fill="white"/>
</clipPath>
</defs>
</svg>
