<svg width="41" height="53" viewBox="0 0 41 53" fill="none" xmlns="http://www.w3.org/2000/svg">
<g clip-path="url(#clip0_37_102)">
<path d="M5.83595 3.3125C2.89996 3.3125 0.595854 5.83026 0.855538 8.75474L3.71956 41.0084C3.89609 42.9964 5.23797 44.689 7.1333 45.3144L18.8206 49.1706C19.8381 49.5063 20.9365 49.5063 21.9539 49.1706L33.6412 45.3144C35.5366 44.689 36.8784 42.9964 37.055 41.0084L39.919 8.75474C40.1787 5.83026 37.8746 3.3125 34.9386 3.3125H5.83595ZM29.802 11.5938C31.5191 11.5938 32.8596 13.0783 32.685 14.7864V14.7864C32.5776 15.8373 31.907 16.7465 30.9346 17.1593L20.4915 21.5934V21.5934C20.4858 21.5953 20.4871 21.6037 20.4932 21.6037H30.3442C31.2791 21.6037 32.0131 22.405 31.9312 23.3364L31.049 33.3692C30.8683 35.4247 29.4434 37.158 27.4618 37.7332L21.9138 39.3433C20.9986 39.6089 20.0266 39.6074 19.1122 39.3391L13.0495 37.5598C11.3389 37.0578 10.111 35.5584 9.95614 33.7824L9.78617 31.8334C9.65695 30.3517 10.8249 29.0775 12.3122 29.0775H12.4047C13.6703 29.0775 14.725 30.0472 14.8311 31.3084V31.3084C14.9183 32.3455 15.6551 33.2125 16.6645 33.4659L19.1738 34.0959C20.0168 34.3076 20.9005 34.2959 21.7376 34.0618L23.6887 33.5164C25.1693 33.1025 26.2247 31.7955 26.3175 30.2609V30.2609C26.4427 28.1916 24.8016 26.443 22.7285 26.4368L9.21619 26.3965C9.214 26.3965 9.21223 26.3947 9.21223 26.3925V26.3925C9.21223 26.3896 9.20914 26.3877 9.2065 26.389L9.20136 26.3915C9.19659 26.3939 9.19093 26.3907 9.19052 26.3854L8.93965 23.1815C8.86598 22.2407 9.40651 21.3595 10.2785 20.9987L20.5019 16.7695V16.7695C20.649 16.7089 20.6056 16.49 20.4466 16.49H10.2776C9.18701 16.49 8.26746 15.6771 8.1338 14.5946L8.10259 14.3419C7.9223 12.8819 9.06119 11.5938 10.5323 11.5938H29.802Z" fill="#CCCCCC"/>
</g>
<defs>
<clipPath id="clip0_37_102">
<rect width="40.03" height="53" fill="white" transform="translate(0.372284)"/>
</clipPath>
</defs>
</svg>
