<svg width="22" height="22" viewBox="0 0 22 22" fill="none" xmlns="http://www.w3.org/2000/svg">
<g clip-path="url(#clip0_59_12)">
<path d="M7.06413 17.0758C7.06413 17.1617 6.96619 17.2305 6.84271 17.2305C6.70219 17.2434 6.60426 17.1746 6.60426 17.0758C6.60426 16.9898 6.70219 16.9211 6.82568 16.9211C6.95342 16.9082 7.06413 16.977 7.06413 17.0758ZM5.73987 16.8824C5.71006 16.9684 5.79523 17.0672 5.92297 17.093C6.03368 17.1359 6.16142 17.093 6.18697 17.007C6.21252 16.9211 6.13161 16.8223 6.00387 16.7836C5.89316 16.7535 5.76968 16.7965 5.73987 16.8824ZM7.62194 16.8094C7.49845 16.8395 7.41329 16.9211 7.42606 17.0199C7.43884 17.1059 7.54955 17.1617 7.67729 17.1316C7.80077 17.1016 7.88594 17.0199 7.87316 16.934C7.86039 16.8523 7.74542 16.7965 7.62194 16.8094ZM10.4237 0.34375C4.51781 0.34375 0 4.86836 0 10.8281C0 15.5934 2.97213 19.6711 7.21742 21.1063C7.76245 21.2051 7.95406 20.8656 7.95406 20.5863C7.95406 20.3199 7.94129 18.8504 7.94129 17.948C7.94129 17.948 4.96065 18.5926 4.33471 16.6676C4.33471 16.6676 3.84929 15.4172 3.15097 15.0949C3.15097 15.0949 2.17587 14.4203 3.2191 14.4332C3.2191 14.4332 4.27935 14.5191 4.86271 15.5418C5.79523 17.2004 7.35794 16.7234 7.96684 16.4398C8.06477 15.7523 8.34155 15.2754 8.64813 14.9918C6.26787 14.7254 3.86632 14.3773 3.86632 10.2437C3.86632 9.06211 4.18994 8.46914 4.87123 7.71289C4.76052 7.43359 4.39858 6.28203 4.98194 4.79531C5.87187 4.51602 7.92 5.95547 7.92 5.95547C8.77161 5.71484 9.6871 5.59023 10.5941 5.59023C11.501 5.59023 12.4165 5.71484 13.2681 5.95547C13.2681 5.95547 15.3163 4.51172 16.2062 4.79531C16.7895 6.28633 16.4276 7.43359 16.3169 7.71289C16.9982 8.47344 17.4155 9.06641 17.4155 10.2437C17.4155 14.3902 14.9075 14.7211 12.5272 14.9918C12.919 15.3313 13.2511 15.9758 13.2511 16.9855C13.2511 18.4336 13.2383 20.2254 13.2383 20.5777C13.2383 20.857 13.4342 21.1965 13.975 21.0977C18.233 19.6711 21.12 15.5934 21.12 10.8281C21.12 4.86836 16.3297 0.34375 10.4237 0.34375ZM4.13884 15.1637C4.08348 15.2066 4.09626 15.3055 4.16865 15.3871C4.23677 15.4559 4.33471 15.4859 4.39006 15.4301C4.44542 15.3871 4.43265 15.2883 4.36026 15.2066C4.29213 15.1379 4.19419 15.1078 4.13884 15.1637ZM3.67897 14.8156C3.64916 14.8715 3.69174 14.9402 3.7769 14.9832C3.84503 15.0262 3.93019 15.0133 3.96 14.9531C3.98981 14.8973 3.94723 14.8285 3.86206 14.7855C3.7769 14.7598 3.70877 14.7727 3.67897 14.8156ZM5.05858 16.3453C4.99045 16.4012 5.016 16.5301 5.11394 16.6117C5.21187 16.7105 5.33535 16.7234 5.39071 16.6547C5.44606 16.5988 5.42052 16.4699 5.33535 16.3883C5.24168 16.2895 5.11394 16.2766 5.05858 16.3453ZM4.57316 15.7137C4.50503 15.7566 4.50503 15.8684 4.57316 15.9672C4.64129 16.066 4.75626 16.109 4.81161 16.066C4.87974 16.0102 4.87974 15.8984 4.81161 15.7996C4.752 15.7008 4.64129 15.6578 4.57316 15.7137Z" fill="#B3E81B"/>
</g>
<defs>
<clipPath id="clip0_59_12">
<rect width="21.12" height="22" fill="white"/>
</clipPath>
</defs>
</svg>
