<svg width="41" height="53" viewBox="0 0 41 53" fill="none" xmlns="http://www.w3.org/2000/svg">
<path d="M7.61666 7C4.67924 7 2.37466 9.52011 2.63658 12.4458L5.01921 39.0612C5.19729 41.0505 6.54206 42.7429 8.43958 43.3659L17.9533 46.4895C18.9635 46.8212 20.053 46.8222 21.0638 46.4925L30.6589 43.3621C32.5608 42.7416 33.9098 41.0472 34.0882 39.0545L36.4702 12.4458C36.7321 9.5201 34.4275 7 31.4901 7H7.61666ZM30.2675 16.4887C30.165 17.5831 29.2464 18.4196 28.1473 18.4196H15.8246C14.5336 18.4196 13.5187 19.5237 13.6271 20.8102V20.8102C13.7233 21.9523 14.6784 22.8304 15.8246 22.8304H24.2282C27.1726 22.8304 29.4795 25.3619 29.2067 28.2936L28.8034 32.6275C28.6102 34.7041 27.1483 36.4427 25.1357 36.9894L19.619 38.488C19.6124 38.4898 19.6078 38.4958 19.6078 38.5027V38.5027C19.6078 38.5111 19.601 38.5179 19.5926 38.5179H19.5198C19.512 38.5179 19.5043 38.5168 19.4967 38.5148L13.1374 36.7822C11.5915 36.3611 10.4756 35.0159 10.3473 33.4188L10.2054 31.6539C10.104 30.3923 11.1218 29.3125 12.3875 29.3125V29.3125C13.4847 29.3125 14.4191 30.1478 14.521 31.2403V31.2403C14.6036 32.1261 15.2292 32.8667 16.0888 33.0961L18.2209 33.6653C19.0643 33.8905 19.952 33.8909 20.7956 33.6665L22.2931 33.2682C23.5456 32.9351 24.4596 31.8593 24.5859 30.5694V30.5694C24.7648 28.7431 23.3298 27.1607 21.4948 27.1607H14.3643C11.7751 27.1607 9.61424 25.1841 9.38406 22.6052L9.1163 19.6052C8.85522 16.68 11.1596 14.1607 14.0965 14.1607H28.1473C29.4018 14.1607 30.3844 15.2397 30.2675 16.4887V16.4887Z" fill="#CCCCCC"/>
</svg>
