<svg width="20" height="22" viewBox="0 0 20 22" fill="none" xmlns="http://www.w3.org/2000/svg">
<g clip-path="url(#clip0_59_2)">
<path d="M9.56952 6.05854C6.85368 6.05854 4.66307 8.26284 4.66307 10.9957C4.66307 13.7285 6.85368 15.9328 9.56952 15.9328C12.2854 15.9328 14.476 13.7285 14.476 10.9957C14.476 8.26284 12.2854 6.05854 9.56952 6.05854ZM9.56952 14.2054C7.81447 14.2054 6.37969 12.766 6.37969 10.9957C6.37969 9.22534 7.8102 7.78589 9.56952 7.78589C11.3288 7.78589 12.7593 9.22534 12.7593 10.9957C12.7593 12.766 11.3246 14.2054 9.56952 14.2054ZM15.8211 5.85659C15.8211 6.49683 15.3086 7.00815 14.6767 7.00815C14.0404 7.00815 13.5323 6.49253 13.5323 5.85659C13.5323 5.22065 14.0447 4.70503 14.6767 4.70503C15.3086 4.70503 15.8211 5.22065 15.8211 5.85659ZM19.0707 7.02534C18.9981 5.48276 18.6479 4.11636 17.5249 2.99058C16.4061 1.86479 15.0482 1.51245 13.5152 1.43511C11.9352 1.34487 7.19956 1.34487 5.61959 1.43511C4.09087 1.50815 2.73295 1.8605 1.60989 2.98628C0.48683 4.11206 0.140945 5.47847 0.0640816 7.02104C-0.0255923 8.61089 -0.0255923 13.3761 0.0640816 14.966C0.136675 16.5085 0.48683 17.875 1.60989 19.0007C2.73295 20.1265 4.0866 20.4789 5.61959 20.5562C7.19956 20.6464 11.9352 20.6464 13.5152 20.5562C15.0482 20.4832 16.4061 20.1308 17.5249 19.0007C18.6437 17.875 18.9938 16.5085 19.0707 14.966C19.1604 13.3761 19.1604 8.61519 19.0707 7.02534ZM17.0295 16.6718C16.6965 17.514 16.0517 18.1628 15.2104 18.5023C13.9507 19.005 10.9616 18.889 9.56952 18.889C8.17744 18.889 5.18404 19.0007 3.9286 18.5023C3.09164 18.1671 2.44685 17.5183 2.1095 16.6718C1.60989 15.4042 1.72518 12.3964 1.72518 10.9957C1.72518 9.59487 1.61416 6.58276 2.1095 5.31948C2.44258 4.47729 3.08737 3.82847 3.9286 3.48901C5.18831 2.98628 8.17744 3.10229 9.56952 3.10229C10.9616 3.10229 13.955 2.99058 15.2104 3.48901C16.0474 3.82417 16.6922 4.473 17.0295 5.31948C17.5291 6.58706 17.4139 9.59487 17.4139 10.9957C17.4139 12.3964 17.5291 15.4085 17.0295 16.6718Z" fill="#B3E81B"/>
</g>
<defs>
<clipPath id="clip0_59_2">
<rect width="19.1304" height="22" fill="white"/>
</clipPath>
</defs>
</svg>
