<svg width="44" height="53" viewBox="0 0 44 53" fill="none" xmlns="http://www.w3.org/2000/svg">
<g clip-path="url(#clip0_37_104)">
<path d="M5.59552 3.3125C2.83409 3.3125 0.59552 5.55108 0.59552 8.3125V44.6875C0.59552 47.4489 2.8341 49.6875 5.59552 49.6875H38.6277C41.3892 49.6875 43.6277 47.4489 43.6277 44.6875V8.3125C43.6277 5.55108 41.3892 3.3125 38.6277 3.3125H5.59552ZM24.0135 39.4809C24.0135 43.9941 21.5545 46.0541 17.9717 46.0541C15.509 46.0541 13.8358 45.0116 12.7533 43.5511C12.1649 42.7573 12.5091 41.6733 13.3374 41.1346V41.1346C14.3341 40.4864 15.5259 40.993 16.4637 41.7239C16.8154 41.998 17.2418 42.1619 17.7988 42.1619C19.1243 42.1619 19.9696 41.6029 19.9696 39.4187V26.6276C19.9696 25.5109 20.8749 24.6057 21.9916 24.6057V24.6057C23.1082 24.6057 24.0135 25.5109 24.0135 26.6276V39.4809ZM33.5805 46.0541C30.6262 46.0541 28.492 44.8627 27.1407 43.1249C26.5153 42.3205 26.8645 41.1977 27.7297 40.6595V40.6595C28.7 40.0558 29.9265 40.4451 30.7797 41.2053C31.4726 41.8226 32.3391 42.2033 33.494 42.2033C35.1654 42.2033 36.2412 41.3027 36.2412 40.0502C36.2412 38.5596 35.1462 38.0316 33.2923 37.1518L32.2837 36.6859C29.3637 35.3506 27.433 33.6633 27.433 30.1127C27.433 26.8416 29.7479 24.3572 33.3499 24.3572C35.3777 24.3572 36.9525 24.9546 38.1776 26.4426C38.7864 27.1822 38.501 28.2548 37.7126 28.7988V28.7988C36.7737 29.4466 35.5648 28.9518 34.5535 28.4244C34.1995 28.2398 33.8026 28.1562 33.3403 28.1562C32.1589 28.1562 31.4097 28.9637 31.4097 30.0195C31.4097 31.3238 32.1589 31.8518 33.8975 32.6695L34.906 33.1354C38.3448 34.7191 40.2754 36.3443 40.2754 39.9881C40.2754 43.901 37.413 46.0541 33.5805 46.0541Z" fill="#CCCCCC"/>
</g>
<defs>
<clipPath id="clip0_37_104">
<rect width="43.0322" height="53" fill="white" transform="translate(0.59552)"/>
</clipPath>
</defs>
</svg>
