<svg width="20" height="22" viewBox="0 0 20 22" fill="none" xmlns="http://www.w3.org/2000/svg">
<g clip-path="url(#clip0_59_10)">
<path d="M18.2201 1.375H1.39716C0.626315 1.375 0 1.99805 0 2.76289V19.2371C0 20.002 0.626315 20.625 1.39716 20.625H18.2201C18.9909 20.625 19.6216 20.002 19.6216 19.2371V2.76289C19.6216 1.99805 18.9909 1.375 18.2201 1.375ZM5.93029 17.875H3.02208V8.68828H5.93467V17.875H5.93029ZM4.47618 7.43359C3.54328 7.43359 2.78995 6.69023 2.78995 5.7793C2.78995 4.86836 3.54328 4.125 4.47618 4.125C5.40471 4.125 6.16242 4.86836 6.16242 5.7793C6.16242 6.69453 5.40909 7.43359 4.47618 7.43359ZM16.8317 17.875H13.9235V13.4062C13.9235 12.3406 13.9016 10.9699 12.4124 10.9699C10.897 10.9699 10.6649 12.1301 10.6649 13.3289V17.875H7.75667V8.68828H10.5466V9.94297H10.586C10.9758 9.22109 11.9263 8.46055 13.341 8.46055C16.2842 8.46055 16.8317 10.3641 16.8317 12.8391V17.875Z" fill="#B3E81B"/>
</g>
<defs>
<clipPath id="clip0_59_10">
<rect width="19.6216" height="22" fill="white"/>
</clipPath>
</defs>
</svg>
